<svg width="12" height="12" viewBox="0 0 12 12" fill="none" xmlns="http://www.w3.org/2000/svg">
<path fill-rule="evenodd" clip-rule="evenodd" d="M6 0C6.57992 6.25877e-08 7.05005 0.470123 7.05005 1.05005L7.05005 4.94999L10.95 4.94999C11.5299 4.94999 12 5.42012 12 6.00004C12 6.57997 11.5299 7.05009 10.95 7.05009L7.05005 7.05009L7.05005 10.95C7.05005 11.5299 6.57992 12 6 12C5.42007 12 4.94995 11.5299 4.94995 10.95L4.94995 7.05009L1.05005 7.05009C0.470123 7.05009 6.25877e-08 6.57997 0 6.00004C0 5.42012 0.470122 4.94999 1.05005 4.94999L4.94995 4.94999L4.94995 1.05005C4.94995 0.470122 5.42007 0 6 0Z" fill="white"/>
</svg>
