<svg width="12" height="12" viewBox="0 0 12 12" fill="none" xmlns="http://www.w3.org/2000/svg">
<path fill-rule="evenodd" clip-rule="evenodd" d="M10.2426 1.75726C10.6527 2.16733 10.6527 2.83218 10.2426 3.24225L7.48495 5.99993L10.2426 8.75758C10.6527 9.16765 10.6527 9.8325 10.2426 10.2426C9.83253 10.6526 9.16768 10.6526 8.75761 10.2426L5.99996 7.48492L3.24234 10.2425C2.83227 10.6526 2.16742 10.6526 1.75735 10.2425C1.34728 9.83247 1.34728 9.16762 1.75735 8.75755L4.51497 5.99993L1.75732 3.24228C1.34725 2.83221 1.34725 2.16736 1.75732 1.75729C2.16739 1.34722 2.83224 1.34722 3.24231 1.75729L5.99996 4.51494L8.75764 1.75726C9.16771 1.34719 9.83256 1.34719 10.2426 1.75726Z" fill="#9700CC"/>
</svg>
