<svg width="39" height="39" viewBox="0 0 39 39" fill="none" xmlns="http://www.w3.org/2000/svg">
<path fill-rule="evenodd" clip-rule="evenodd" d="M18.3502 5.37565C17.7104 6.21114 16.9882 7.5002 15.9392 9.38202L15.4067 10.3373C15.3746 10.3949 15.3429 10.4519 15.3116 10.5084C14.8229 11.3878 14.4104 12.1301 13.7458 12.6347C13.074 13.1446 12.255 13.3287 11.3032 13.5426C11.2421 13.5563 11.1804 13.5702 11.1181 13.5843L10.084 13.8183C8.04412 14.2798 6.6564 14.5974 5.70588 14.9719C4.77833 15.3375 4.58254 15.637 4.50791 15.877C4.42914 16.1302 4.4268 16.5177 4.98132 17.3985C5.54413 18.2926 6.49362 19.4077 7.88223 21.0315L8.58719 21.8559C8.62815 21.9038 8.66876 21.9512 8.70895 21.998C9.36384 22.762 9.9099 23.3989 10.1604 24.2044C10.4093 25.005 10.3268 25.8463 10.2268 26.8663C10.2206 26.9289 10.2144 26.9921 10.2082 27.0561L10.1017 28.1559C9.89188 30.3208 9.75044 31.8113 9.79827 32.885C9.84601 33.9567 10.0724 34.253 10.2523 34.3896C10.4124 34.5111 10.7083 34.6456 11.6723 34.3694C12.652 34.0887 13.954 33.4931 15.8641 32.6136L16.8323 32.1678C16.8919 32.1404 16.951 32.1131 17.0095 32.086C17.8948 31.6767 18.6628 31.3216 19.5008 31.3216C20.3388 31.3216 21.1068 31.6767 21.9921 32.086C22.0507 32.1131 22.1097 32.1404 22.1694 32.1678L23.1376 32.6136C25.0476 33.4931 26.3497 34.0887 27.3293 34.3694C28.2933 34.6456 28.5892 34.5111 28.7493 34.3896C28.9293 34.253 29.1556 33.9567 29.2034 32.885C29.2512 31.8113 29.1098 30.3207 28.9 28.1559L28.7934 27.0561C28.7872 26.9921 28.781 26.9289 28.7749 26.8664C28.6748 25.8463 28.5923 25.005 28.8413 24.2044C29.0917 23.3989 29.6378 22.762 30.2927 21.998C30.3329 21.9511 30.3735 21.9038 30.4145 21.8559L31.1194 21.0315C32.508 19.4077 33.4575 18.2926 34.0203 17.3985C34.5748 16.5177 34.5725 16.1302 34.4937 15.877C34.4191 15.637 34.2233 15.3375 33.2958 14.9719C32.3452 14.5974 30.9575 14.2798 28.9176 13.8182L27.8835 13.5843C27.8213 13.5702 27.7596 13.5563 27.6984 13.5426C26.7466 13.3287 25.9277 13.1446 25.2559 12.6347C24.5912 12.1301 24.1788 11.3878 23.6901 10.5084C23.6587 10.4519 23.627 10.3949 23.5949 10.3373L23.0624 9.38202C22.0134 7.5002 21.2912 6.21114 20.6514 5.37565C20.0122 4.54095 19.6857 4.46875 19.5008 4.46875C19.316 4.46875 18.9895 4.54095 18.3502 5.37565ZM16.415 3.89366C17.1896 2.88215 18.147 2.03125 19.5008 2.03125C20.8546 2.03125 21.812 2.88215 22.5866 3.89366C23.3477 4.88756 24.1548 6.33549 25.1412 8.10512L25.724 9.15047C26.3618 10.2948 26.525 10.5378 26.7297 10.6932C26.9267 10.8428 27.1809 10.9262 28.4215 11.2069L29.559 11.4643C31.4694 11.8964 33.0432 12.2525 34.1895 12.7042C35.3793 13.1731 36.4204 13.8642 36.8213 15.1532C37.218 16.4289 36.7722 17.6025 36.0831 18.6971C35.4136 19.7606 34.3443 21.011 33.038 22.5384L32.2669 23.4401C31.4268 24.4225 31.2513 24.6629 31.1688 24.9282C31.0847 25.1987 31.0926 25.5112 31.2195 26.821L31.3358 28.0204C31.5336 30.0615 31.6949 31.7259 31.6385 32.9935C31.581 34.2837 31.2879 35.5227 30.2231 36.3311C29.1384 37.1545 27.8763 37.0617 26.6579 36.7126C25.4765 36.3741 24.0038 35.696 22.2154 34.8725L21.1499 34.3819C19.9843 33.8452 19.7347 33.7591 19.5008 33.7591C19.2669 33.7591 19.0174 33.8452 17.8517 34.3819L16.7863 34.8725C14.9979 35.696 13.5251 36.3741 12.3437 36.7126C11.1253 37.0617 9.86324 37.1545 8.77852 36.3311C7.7137 35.5227 7.42066 34.2837 7.36318 32.9935C7.30671 31.7259 7.46804 30.0614 7.66587 28.0204L7.7821 26.821C7.90902 25.5112 7.91693 25.1987 7.83282 24.9282C7.75032 24.6629 7.57482 24.4225 6.73469 23.4401L5.96365 22.5385C4.65739 21.011 3.58803 19.7606 2.91852 18.6971C2.22947 17.6025 1.78364 16.4289 2.18035 15.1532C2.58119 13.8642 3.62238 13.1731 4.81218 12.7042C5.9584 12.2525 7.53225 11.8964 9.44265 11.4642L9.54611 11.4408L10.5802 11.2069C11.8208 10.9262 12.0749 10.8428 12.2719 10.6932C12.4766 10.5378 12.6398 10.2948 13.2777 9.15047L13.8604 8.1051C14.8468 6.33549 15.6539 4.88756 16.415 3.89366Z" fill="white"/>
</svg>
