<svg width="25" height="24" viewBox="0 0 25 24" fill="none" xmlns="http://www.w3.org/2000/svg">
<path d="M6.27589 23.9993C5.77334 23.9993 5.27593 23.843 4.84902 23.5329C4.09521 22.9858 3.72471 22.0747 3.88239 21.1573L4.80928 15.7539C4.83748 15.5899 4.78364 15.4221 4.66441 15.3055L0.736366 11.4794C0.0684443 10.8285 -0.167444 9.87521 0.121006 8.98981C0.409456 8.10441 1.16199 7.46887 2.08375 7.33561L7.51045 6.54759C7.67583 6.52325 7.81942 6.41946 7.89377 6.26954L10.3206 1.35437C10.7334 0.520219 11.568 0 12.5 0C13.432 0 14.2666 0.518937 14.6794 1.35437L17.1062 6.26954C17.1806 6.41946 17.3229 6.52325 17.4883 6.54759L22.9162 7.33561C23.838 7.46887 24.5905 8.10441 24.879 8.98981C25.1674 9.87521 24.9316 10.8298 24.2636 11.4794L20.3369 15.3055C20.2164 15.4221 20.1625 15.5899 20.1907 15.7539L21.1176 21.1573C21.2753 22.076 20.9048 22.987 20.151 23.5329C19.3959 24.0826 18.4151 24.1505 17.5908 23.7187L12.7359 21.1688C12.5872 21.0894 12.4103 21.0907 12.2641 21.1688L7.40918 23.7187C7.05022 23.907 6.66177 23.9993 6.27589 23.9993Z" fill="#E5E5E5"/>
</svg>
