<svg width="117" height="72" viewBox="0 0 117 72" fill="none" xmlns="http://www.w3.org/2000/svg">
<path d="M35.8836 0C26.3459 0.0308664 17.2103 3.84532 10.4825 10.6059C3.75467 17.3664 -0.015386 26.5204 4.71973e-05 36.0582C0.0154804 45.5959 3.81514 54.7377 10.5648 61.4764C17.3144 68.2151 26.4624 72 36.0001 72C45.5378 72 54.6858 68.2151 61.4354 61.4764C68.1851 54.7377 71.9847 45.5959 72.0001 36.0582C72.0156 26.5204 68.2455 17.3664 61.5177 10.6059C54.7899 3.84532 45.6543 0.0308664 36.1166 0L35.8836 0Z" fill="#EB001B"/>
<path d="M80.3886 0C70.8509 0.0308664 61.7153 3.84532 54.9875 10.6059C48.2597 17.3664 44.4896 26.5204 44.5051 36.0582C44.5205 45.5959 48.3201 54.7377 55.0698 61.4764C61.8194 68.2151 70.9674 72 80.5051 72C90.0428 72 99.1908 68.2151 105.94 61.4764C112.69 54.7377 116.49 45.5959 116.505 36.0582C116.521 26.5204 112.751 17.3664 106.023 10.6059C99.2949 3.84532 90.1593 0.0308664 80.6216 0L80.3886 0Z" fill="#F79E1B"/>
<path d="M58.2526 7.68945C53.9642 11.0579 50.4971 15.3565 48.113 20.2609C45.7289 25.1652 44.4901 30.5471 44.4901 36.0002C44.4901 41.4533 45.7289 46.8352 48.113 51.7395C50.4971 56.6439 53.9642 60.9425 58.2526 64.311C62.541 60.9425 66.0081 56.6439 68.3922 51.7395C70.7764 46.8352 72.0152 41.4533 72.0152 36.0002C72.0152 30.5471 70.7764 25.1652 68.3922 20.2609C66.0081 15.3565 62.541 11.0579 58.2526 7.68945Z" fill="#FF5F00"/>
</svg>
