<svg width="235" height="64" viewBox="0 0 235 64" fill="none" xmlns="http://www.w3.org/2000/svg">
<path d="M0 0.010415H21.9964C23.9961 0.010415 29.9951 -0.656143 32.6613 8.67567C34.661 14.6747 37.3273 24.0065 41.3266 38.0042H42.6597C46.6591 23.34 49.9919 13.3416 51.325 8.67567C53.9912 -0.656143 60.6568 0.010415 63.323 0.010415H83.9863V64H62.6565V26.0062H61.3233L49.9919 64H33.9945L22.663 26.0062H20.6633V64H0M92.6516 0.010415H113.981V38.0042H115.981L129.979 6.676C132.645 0.676973 138.644 0.010415 138.644 0.010415H158.641V64H137.311V26.0062H135.978L121.98 57.3344C119.314 63.3334 112.648 64 112.648 64H92.6516M187.303 44.6698V64H167.306V30.6721H232.629C229.963 38.6708 220.631 44.6698 209.966 44.6698" fill="#0F754E"/>
<path d="M233.962 26.6726C236.628 14.6745 228.629 0.0102539 211.299 0.0102539H165.973C167.306 14.008 179.304 26.6726 191.969 26.6726" fill="url(#paint0_linear_308_3191)"/>
<defs>
<linearGradient id="paint0_linear_308_3191" x1="225.963" y1="-8.655" x2="172.639" y2="-8.655" gradientUnits="userSpaceOnUse">
<stop stop-color="#1F5CD7"/>
<stop offset="1" stop-color="#02AEFF"/>
</linearGradient>
</defs>
</svg>
