<svg width="70" height="72" viewBox="0 0 70 72" fill="none" xmlns="http://www.w3.org/2000/svg">
<path fill-rule="evenodd" clip-rule="evenodd" d="M48.2912 63.1279C54.4397 63.1279 61.1102 65.2319 68.4956 71.7617C69.2355 72.4153 70.2206 71.6028 69.5737 70.7903C62.3177 61.6458 55.6063 59.905 48.9131 58.4343C40.7242 56.6322 36.5141 52.0339 33.5794 46.9862C32.9961 45.983 32.7328 46.1601 32.6806 47.4515C32.6148 49.0289 32.726 51.1192 33.0801 53.1755C32.7487 53.1891 32.4173 53.1869 32.0814 53.1869C20.3701 53.1869 10.8739 43.7088 10.8739 32.0179C10.8739 20.3292 20.3701 10.8534 32.0837 10.8534C43.7951 10.8534 53.2913 20.3292 53.2913 32.0179C53.2913 32.8509 53.2504 33.6747 53.1551 34.4805C51.6072 34.2013 48.5591 34.1695 46.4211 34.3534C45.6176 34.4237 45.7311 34.7982 46.3394 34.9072C53.3503 36.1713 58.1642 40.5086 59.2672 48.3775C59.2899 48.5591 59.5305 48.6113 59.6236 48.4547C62.6047 43.491 64.1749 37.808 64.1651 32.0179C64.1651 14.3374 49.8006 0 32.0837 0C14.3646 0 0 14.3351 0 32.0179C0 49.703 14.3646 64.0403 32.0837 64.0403C36.7819 64.0403 41.4483 63.1279 48.2912 63.1279ZM50.6789 51.5028C52.1065 52.7057 52.54 54.1379 51.7865 55.1479C51.3666 55.7016 50.6857 56.008 49.8687 56.008C49.0716 56.0082 48.2997 55.7287 47.6875 55.2182C46.3893 54.0857 46.008 52.2518 46.8546 51.21C47.1859 50.8015 47.7238 50.5768 48.3684 50.5768C49.1514 50.5768 49.9731 50.9059 50.6789 51.5028ZM57.2654 48.4433C57.4742 49.846 57.0317 50.427 56.5845 50.427C56.0966 50.427 55.486 49.8596 54.7665 48.7361C54.0539 47.6285 53.7929 46.3575 54.1469 45.7152C54.3784 45.2908 54.8664 45.1047 55.4815 45.3384C56.673 45.7856 57.1383 47.6058 57.2654 48.4433Z" fill="#FF8C00"/>
</svg>
