<svg width="197" height="64" viewBox="0 0 197 64" fill="none" xmlns="http://www.w3.org/2000/svg">
<path d="M85.3665 63.0767H69.4081L79.3896 1.12305H95.3471L85.3665 63.0767Z" fill="#00579F"/>
<path d="M143.217 2.63761C140.069 1.38407 135.077 0 128.904 0C113.144 0 102.046 8.43581 101.978 20.4965C101.848 29.3948 109.924 34.3371 115.965 37.3041C122.139 40.3359 124.237 42.3148 124.237 45.0172C124.175 49.1677 119.248 51.0809 114.654 51.0809C108.283 51.0809 104.869 50.0945 99.6807 47.7854L97.5793 46.7955L95.3462 60.7028C99.089 62.4145 105.985 63.9334 113.144 64C129.889 64 140.79 55.6947 140.919 42.8422C140.983 35.7895 136.718 30.3855 127.524 25.9697C121.942 23.135 118.524 21.2235 118.524 18.3231C118.59 15.6864 121.415 12.9857 127.716 12.9857C132.904 12.8534 136.716 14.1052 139.603 15.3579L141.047 16.0158L143.217 2.63761Z" fill="#00579F"/>
<path d="M164.427 41.1287C165.741 37.5696 170.798 23.7946 170.798 23.7946C170.732 23.9269 172.11 20.1697 172.898 17.8633L174.013 23.2016C174.013 23.2016 177.035 38.0312 177.692 41.1287C175.197 41.1287 167.579 41.1287 164.427 41.1287ZM184.126 1.12305H171.782C167.975 1.12305 165.083 2.24256 163.441 6.26337L139.737 63.0758H156.481C156.481 63.0758 159.238 55.4293 159.831 53.7824C161.668 53.7824 177.957 53.7824 180.32 53.7824C180.778 55.9575 182.224 63.0758 182.224 63.0758H197L184.126 1.12305Z" fill="#00579F"/>
<path d="M56.079 1.12305L40.4505 43.3695L38.7427 34.8014C35.8533 24.915 26.7916 14.1736 16.6792 8.83266L30.9944 63.011H47.8699L72.9537 1.12305H56.079Z" fill="#00579F"/>
<path d="M25.9381 1.12305H0.26267L0 2.37484C20.0285 7.51604 33.2929 19.9087 38.7427 34.8041L33.1612 6.33082C32.2423 2.37396 29.4183 1.25357 25.9381 1.12305Z" fill="#FAA61A"/>
</svg>
