<svg width="40" height="32" viewBox="0 0 40 32" fill="none" xmlns="http://www.w3.org/2000/svg">
<mask id="mask0_307_3465" style="mask-type:luminance" maskUnits="userSpaceOnUse" x="0" y="0" width="40" height="32">
<path d="M0.5 30.682V0.5H39.5V30.682H0.5Z" fill="white" stroke="white"/>
</mask>
<g mask="url(#mask0_307_3465)">
<path d="M33.8617 2.77674C31.3122 1.59954 28.5783 0.732228 25.7198 0.235482C25.6678 0.225896 25.6158 0.249853 25.589 0.297773C25.2373 0.927086 24.8478 1.74807 24.5752 2.39338C21.5007 1.93019 18.442 1.93019 15.4305 2.39338C15.1577 1.73374 14.7541 0.927086 14.4009 0.297773C14.3741 0.251452 14.3221 0.227494 14.2701 0.235482C11.4132 0.73064 8.67927 1.59795 6.12822 2.77674C6.10613 2.78632 6.08722 2.8023 6.07465 2.82307C0.888987 10.6193 -0.531583 18.224 0.1653 25.7344C0.168453 25.7711 0.18895 25.8063 0.21733 25.8286C3.63868 28.3571 6.95285 29.8921 10.2055 30.9095C10.2575 30.9255 10.3127 30.9063 10.3458 30.8632C11.1152 29.8058 11.8011 28.6909 12.3891 27.5185C12.4238 27.4498 12.3907 27.3684 12.3198 27.3412C11.2319 26.926 10.196 26.4195 9.19955 25.8446C9.12073 25.7982 9.11442 25.6849 9.18693 25.6305C9.39662 25.4724 9.60637 25.3078 9.8066 25.1417C9.84282 25.1114 9.8933 25.105 9.93588 25.1242C16.4821 28.1319 23.5692 28.1319 30.0383 25.1242C30.0808 25.1033 30.1313 25.1099 30.1692 25.1402C30.3693 25.3063 30.5792 25.4724 30.7903 25.6305C30.8628 25.6849 30.8582 25.7982 30.7793 25.8446C29.7828 26.4308 28.747 26.926 27.6575 27.3396C27.5867 27.3668 27.555 27.4498 27.5897 27.5185C28.1905 28.6894 28.8763 29.8041 29.6315 30.8617C29.663 30.9063 29.7198 30.9255 29.7718 30.9095C33.0402 29.8921 36.3543 28.3571 39.7757 25.8286C39.8057 25.8063 39.8247 25.7726 39.8278 25.7359C40.6618 17.0532 38.4308 9.51085 33.9137 2.82465C33.9027 2.8023 33.8838 2.78632 33.8617 2.77674ZM13.3667 21.1613C11.3958 21.1613 9.77188 19.3405 9.77188 17.1044C9.77188 14.8681 11.3643 13.0472 13.3667 13.0472C15.3848 13.0472 16.993 14.8841 16.9615 17.1044C16.9615 19.3405 15.369 21.1613 13.3667 21.1613ZM26.6578 21.1613C24.6872 21.1613 23.0632 19.3405 23.0632 17.1044C23.0632 14.8681 24.6555 13.0472 26.6578 13.0472C28.676 13.0472 30.2842 14.8841 30.2527 17.1044C30.2527 19.3405 28.676 21.1613 26.6578 21.1613Z" fill="#5865F2"/>
</g>
</svg>
