<svg width="40" height="40" viewBox="0 0 40 40" fill="none" xmlns="http://www.w3.org/2000/svg">
<path d="M39.8798 11.7542C39.7823 9.62523 39.4442 8.17138 38.9498 6.89942C38.4478 5.56488 37.6607 4.35608 36.643 3.35693C35.6442 2.33948 34.4352 1.55182 33.1007 1.0495C31.8283 0.55542 30.3748 0.21759 28.2458 0.12085C26.113 0.0231933 25.4317 0 20 0C14.5685 0 13.887 0.0231933 11.7542 0.120239C9.62523 0.21759 8.1717 0.555727 6.89942 1.05011C5.56488 1.55212 4.35608 2.33948 3.35693 3.35693C2.33948 4.35578 1.55182 5.56458 1.0495 6.8991C0.55542 8.17138 0.21759 9.62523 0.12085 11.7538C0.0231933 13.887 0 14.5682 0 19.9997C0 25.4317 0.0231933 26.113 0.12085 28.2458C0.217897 30.3743 0.55603 31.8283 1.05041 33.1007C1.55243 34.4348 2.33978 35.644 3.35723 36.6428C4.35608 37.6602 5.56518 38.4477 6.89972 38.9497C8.1717 39.4442 9.62553 39.7822 11.7545 39.8793C13.8876 39.9768 14.5688 39.9997 20.0003 39.9997C25.4318 39.9997 26.1132 39.9768 28.2462 39.8793C30.375 39.7822 31.8287 39.4442 33.1008 38.9497C35.7873 37.9108 37.911 35.787 38.9498 33.1007C39.4447 31.8283 39.7823 30.3743 39.8798 28.2458C39.9768 26.1127 40 25.4317 40 20C40 14.5682 39.9768 13.887 39.8798 11.7542ZM36.2797 28.082C36.1908 30.032 35.8648 31.091 35.5912 31.7957C34.9182 33.54 33.5398 34.9187 31.7953 35.5913C31.0907 35.8652 30.0318 36.1912 28.0817 36.28C25.9732 36.3763 25.3407 36.3963 20 36.3963C14.6591 36.3963 14.0268 36.3763 11.918 36.28C9.96827 36.1912 8.9093 35.8652 8.20433 35.5913C7.33582 35.2707 6.54998 34.7597 5.90483 34.0952C5.24048 33.45 4.7293 32.6643 4.40857 31.7957C4.13482 31.091 3.8089 30.032 3.7201 28.082C3.62397 25.9732 3.60352 25.3407 3.60352 20.0003C3.60352 14.6597 3.62397 14.0274 3.7201 11.9183C3.8092 9.96827 4.13482 8.9093 4.40857 8.20467C4.7293 7.33582 5.24078 6.54998 5.90483 5.90483C6.54998 5.24048 7.33582 4.7293 8.20467 4.40888C8.9093 4.13482 9.96827 3.8092 11.9183 3.7201C14.0271 3.62397 14.6597 3.60352 20 3.60352C25.3403 3.60352 25.9727 3.62397 28.0817 3.7204C30.0318 3.8092 31.0903 4.13513 31.7953 4.40888C32.6638 4.72962 33.4498 5.24078 34.0948 5.90483C34.7592 6.54998 35.2703 7.33582 35.5908 8.20467C35.8648 8.9093 36.1908 9.96827 36.2797 11.9183C36.3758 14.0271 36.3962 14.6597 36.3962 20C36.3962 25.3407 36.376 25.973 36.2797 28.082Z" fill="url(#paint0_linear_307_3460)"/>
<path d="M19.9998 9.72949C14.3278 9.72949 9.72974 14.3279 9.72974 19.9999C9.72974 25.6717 14.3278 30.2699 19.9998 30.2699C25.6721 30.2699 30.2703 25.6717 30.2703 19.9999C30.2703 14.3279 25.6721 9.72949 19.9998 9.72949ZM19.9998 26.6664C16.3182 26.6662 13.3332 23.6816 13.3336 19.9996C13.3336 16.3179 16.3182 13.333 20.0001 13.333C23.6821 13.3333 26.6666 16.3179 26.6666 19.9996C26.6666 23.6816 23.6819 26.6664 19.9998 26.6664Z" fill="url(#paint1_linear_307_3460)"/>
<path d="M33.075 9.32404C33.075 10.6494 32.0003 11.7239 30.675 11.7239C29.3493 11.7239 28.2747 10.6494 28.2747 9.32404C28.2747 7.99836 29.3493 6.92383 30.675 6.92383C32.0003 6.92383 33.075 7.99836 33.075 9.32404Z" fill="url(#paint2_linear_307_3460)"/>
<defs>
<linearGradient id="paint0_linear_307_3460" x1="3.35673" y1="36.643" x2="36.6432" y2="3.3564" gradientUnits="userSpaceOnUse">
<stop stop-color="#FFD600"/>
<stop offset="0.5" stop-color="#FF0100"/>
<stop offset="1" stop-color="#D800B9"/>
</linearGradient>
<linearGradient id="paint1_linear_307_3460" x1="12.7379" y1="27.2617" x2="27.2623" y2="12.7376" gradientUnits="userSpaceOnUse">
<stop stop-color="#FF6400"/>
<stop offset="0.5" stop-color="#FF0100"/>
<stop offset="1" stop-color="#FD0056"/>
</linearGradient>
<linearGradient id="paint2_linear_307_3460" x1="28.9777" y1="11.0209" x2="32.372" y2="7.62688" gradientUnits="userSpaceOnUse">
<stop stop-color="#F30072"/>
<stop offset="1" stop-color="#E50097"/>
</linearGradient>
</defs>
</svg>
