<svg width="24" height="40" viewBox="0 0 24 40" fill="none" xmlns="http://www.w3.org/2000/svg">
<path d="M20.7466 26.0748C18.6637 27.4315 15.798 27.9693 13.9052 28.1722L15.4938 29.7782L21.2937 35.7268C23.4147 37.9566 19.9634 41.4417 17.8199 39.2899C16.3681 37.7773 14.2394 35.5944 12.0198 33.3177L6.21988 39.2822C4.07622 41.4262 0.62513 37.9097 2.76877 35.7191C4.24346 34.2064 6.3491 32.0235 8.56876 29.7704L10.1347 28.1642C8.26475 27.9615 5.35336 27.4546 3.24764 26.0673C0.769517 24.4297 -0.317456 23.4708 0.640275 21.4672C1.20276 20.3288 2.74584 19.3699 4.79072 21.0227C4.79072 21.0227 7.55008 23.2759 12.0047 23.2759C16.4591 23.2759 19.2185 21.0227 19.2185 21.0227C21.2632 19.3776 22.7987 20.3288 23.3689 21.4672C24.3119 23.4708 23.2246 24.4297 20.7466 26.0748ZM2.1379 10.1467C2.1379 4.55663 6.56958 0.034668 11.9972 0.034668C17.4248 0.034668 21.8564 4.55663 21.8564 10.1467C21.8564 15.7134 17.4248 20.2353 11.9972 20.2353C6.56958 20.2353 2.1379 15.7134 2.1379 10.1467ZM7.15501 10.1467C7.15501 12.8832 9.32904 15.1129 11.9972 15.1129C14.6651 15.1129 16.8394 12.8832 16.8394 10.1467C16.8394 7.38666 14.6652 5.15697 11.9972 5.15697C9.32896 5.15697 7.15501 7.38666 7.15501 10.1467Z" fill="#FF7E00"/>
</svg>
