<svg width="40" height="40" viewBox="0 0 40 40" fill="none" xmlns="http://www.w3.org/2000/svg">
<path d="M31.5137 0H8.48617C3.79938 0 0 3.79938 0 8.48617V31.5137C0 36.2005 3.79938 39.9998 8.48617 39.9998H31.5137C36.2005 39.9998 39.9998 36.2005 39.9998 31.5137V8.48617C39.9998 3.79938 36.2005 0 31.5137 0Z" fill="#0B1D38"/>
<path d="M32.7746 11.1208C34.1703 11.1208 35.3018 9.98934 35.3018 8.59361C35.3018 7.19787 34.1703 6.06641 32.7746 6.06641C31.3788 6.06641 30.2473 7.19787 30.2473 8.59361C30.2473 9.98934 31.3788 11.1208 32.7746 11.1208Z" fill="#F41240"/>
<path d="M25.266 10.8413H7.50488V30.5857H12.4484V24.1622H21.921L26.2428 30.5857H31.7783L27.0125 24.1325C28.4925 23.8957 29.5582 23.3333 30.2095 22.4452C30.8607 21.5572 31.1863 20.1362 31.1863 18.2418V16.7617C31.1863 15.6368 31.0678 14.7487 30.8607 14.0679C30.6535 13.3871 30.2982 12.795 29.795 12.2622C29.2622 11.759 28.6702 11.4037 27.9597 11.1669C27.2492 10.9597 26.3612 10.8413 25.266 10.8413ZM24.4667 19.8107H12.4484V15.1928H24.4667C25.1475 15.1928 25.6212 15.3112 25.858 15.5184C26.0948 15.7256 26.2428 16.1105 26.2428 16.6728V18.3305C26.2428 18.9225 26.0948 19.3073 25.858 19.5147C25.6212 19.7218 25.1475 19.8107 24.4667 19.8107Z" fill="white"/>
</svg>
