<svg width="40" height="40" viewBox="0 0 40 40" fill="none" xmlns="http://www.w3.org/2000/svg">
<path d="M0 20C0 31.0459 8.95425 40 20 40C31.0458 40 40 31.0459 40 20C40 8.95426 31.0458 0 20 0C8.95425 0 0 8.95426 0 20Z" fill="url(#paint0_linear_307_3472)"/>
<path d="M13.5385 21.4617L15.9113 28.0295C15.9113 28.0295 16.208 28.6437 16.5257 28.6437C16.8435 28.6437 21.5682 23.7283 21.5682 23.7283L26.8224 13.5801L13.6232 19.7665L13.5385 21.4617Z" fill="#C8DAEA"/>
<path d="M16.6843 23.1465L16.2287 27.9875C16.2287 27.9875 16.038 29.4705 17.521 27.9875C19.0042 26.5045 20.4237 25.3603 20.4237 25.3603" fill="#A9C6D8"/>
<path d="M13.5812 21.6965L8.70065 20.1062C8.70065 20.1062 8.11812 19.8697 8.30524 19.3328C8.34387 19.2222 8.42167 19.1282 8.65472 18.9657C9.73642 18.2118 28.6725 11.4056 28.6725 11.4056C28.6725 11.4056 29.2071 11.2256 29.5233 11.3453C29.6676 11.4 29.7598 11.4619 29.8375 11.6876C29.8658 11.7698 29.8821 11.9446 29.8798 12.1185C29.8781 12.2439 29.863 12.36 29.8518 12.5422C29.7365 14.4032 26.2856 28.291 26.2856 28.291C26.2856 28.291 26.0791 29.1038 25.3393 29.1313C25.0695 29.1415 24.7421 29.0868 24.3505 28.75C22.8988 27.5012 17.8806 24.1288 16.772 23.3873C16.7093 23.3457 16.6916 23.2912 16.681 23.2382C16.6654 23.1602 16.7488 23.0628 16.7488 23.0628C16.7488 23.0628 25.4865 15.2959 25.719 14.481C25.737 14.4178 25.6693 14.3866 25.5776 14.4139C24.9973 14.6275 14.9369 20.98 13.8268 21.6817C13.7619 21.7227 13.5812 21.6965 13.5812 21.6965Z" fill="white"/>
<defs>
<linearGradient id="paint0_linear_307_3472" x1="20" y1="39.9999" x2="20" y2="-0.000169277" gradientUnits="userSpaceOnUse">
<stop stop-color="#1D93D2"/>
<stop offset="1" stop-color="#38B0E3"/>
</linearGradient>
</defs>
</svg>
