<svg width="37" height="40" viewBox="0 0 37 40" fill="none" xmlns="http://www.w3.org/2000/svg">
<mask id="mask0_307_3461" style="mask-type:luminance" maskUnits="userSpaceOnUse" x="0" y="0" width="37" height="40">
<path d="M0.5 39.2634V0.5H36.5V39.2634H0.5Z" fill="white" stroke="white"/>
</mask>
<g mask="url(#mask0_307_3461)">
<path d="M12.2793 20.6188C9.00588 20.6188 6.36135 23.1767 6.40971 26.3116C6.44196 28.3234 7.58685 30.0702 9.27192 31.045C8.6995 30.195 8.36086 29.189 8.34473 28.1051C8.29636 24.97 10.9409 22.4123 14.2143 22.4123C14.8593 22.4123 15.4802 22.5137 16.0606 22.6931V16.4154C15.456 16.3297 14.8351 16.283 14.2143 16.283C14.1821 16.283 14.1579 16.283 14.1256 16.283V20.8996C13.5451 20.7202 12.9243 20.6188 12.2793 20.6188Z" fill="#F00044"/>
<path d="M26.4296 1.79395H26.3812H24.7043C25.188 4.14122 26.5506 6.18436 28.4535 7.57245C27.2037 5.97381 26.4458 3.97745 26.4296 1.79395Z" fill="#F00044"/>
<path d="M36.2968 11.3471C35.6598 11.3471 35.0472 11.2847 34.4424 11.1755V15.6751C32.2494 15.6751 30.1208 15.2618 28.1214 14.4352C26.8313 13.9049 25.6301 13.2265 24.5253 12.4077L24.5577 26.2808C24.5416 29.4001 23.2678 32.3245 20.9619 34.5313C19.0832 36.3248 16.7047 37.4713 14.1247 37.8379C13.52 37.9236 12.8992 37.9702 12.2784 37.9702C9.52098 37.9702 6.89256 37.1048 4.75598 35.5061C4.99785 35.7868 5.25587 36.0599 5.53805 36.3248C7.86008 38.5396 10.94 39.7641 14.2215 39.7641C14.8423 39.7641 15.4631 39.7173 16.0677 39.6314C18.6478 39.265 21.0262 38.1185 22.9047 36.3248C25.2107 34.1181 26.4848 31.1936 26.5008 28.0744L26.3799 14.2013C27.4764 15.0201 28.6776 15.7064 29.9757 16.2288C31.9833 17.0476 34.1118 17.4687 36.2968 17.4687" fill="#F00044"/>
<path d="M5.51485 19.7372C7.81267 17.5303 10.8684 16.306 14.1257 16.2826V14.6216C13.521 14.5358 12.9002 14.489 12.2794 14.489C8.98983 14.489 5.90185 15.7134 3.57983 17.9436C1.29811 20.1349 -0.00802549 23.1296 3.71076e-05 26.2411C3.71076e-05 29.3759 1.28199 32.3159 3.59595 34.5383C3.96683 34.8892 4.34577 35.2168 4.7489 35.5131C2.92676 33.4154 1.93505 30.7951 1.92699 28.0346C1.93505 24.9231 3.23314 21.9285 5.51485 19.7372Z" fill="#08FFF9"/>
<path d="M34.4432 11.1748V9.50598H34.4268C32.1855 9.50598 30.1216 8.78856 28.4606 7.57202C29.9039 9.41241 32.0163 10.7225 34.4432 11.1748Z" fill="#08FFF9"/>
<path d="M13.8844 33.626C14.6503 33.6651 15.384 33.5637 16.0612 33.3531C18.3995 32.6123 20.0845 30.5068 20.0845 28.0269L20.0925 18.7471V1.7936H24.7044C24.5836 1.20873 24.519 0.616063 24.511 0H18.1576V16.9455L18.1494 26.2255C18.1494 28.7054 16.4644 30.8109 14.1263 31.5518C13.449 31.7702 12.7153 31.8715 11.9494 31.8248C10.9738 31.7702 10.0627 31.4894 9.27258 31.0371C10.2643 32.5186 11.9574 33.5246 13.8844 33.626Z" fill="#08FFF9"/>
<path d="M13.6252 20.2481C13.1918 20.1593 12.7413 20.1111 12.2789 20.1111C8.74882 20.1111 5.85638 22.8756 5.90939 26.3118L5.90939 26.3121C5.94406 28.4747 7.15278 30.3538 8.92253 31.4124C10.0082 32.9621 11.8041 34.0097 13.855 34.1179C14.6837 34.1682 15.4786 34.0583 16.2126 33.8218C18.7392 33.0207 20.5834 30.7359 20.5836 28.02L13.6252 20.2481ZM13.6252 20.2481V16.7889C10.6827 16.927 7.94541 18.0883 5.86074 20.0905L5.51439 19.7299L5.86073 20.0905C3.67376 22.1909 2.42691 25.0563 2.43461 28.0183L2.43461 28.0196C2.43461 30.64 3.36879 33.1279 5.09824 35.129C7.14685 36.6416 9.64542 37.4622 12.2789 37.4622H12.2853L12.2853 37.4622C12.877 37.4699 13.472 37.4252 14.0551 37.3425C16.5329 36.9904 18.8148 35.8901 20.6168 34.1693C22.8268 32.0543 24.0425 29.2591 24.0582 26.2796L24.0259 12.4085L24.0235 11.4084L24.825 12.0067C25.8887 12.8009 27.0524 13.4654 28.3087 13.9711L28.3108 13.9719C30.1051 14.7038 31.9984 15.1081 33.9429 15.1672V11.5824C31.5914 11.0478 29.5443 9.7389 28.11 7.93538C26.2487 6.55845 24.876 4.57815 24.3114 2.29395H20.5916V18.7396V18.74L20.5836 28.0196L13.6252 20.2481Z" fill="#140F14" stroke="#140F14"/>
</g>
</svg>
