<svg width="42" height="36" viewBox="0 0 42 36" fill="none" xmlns="http://www.w3.org/2000/svg">
<path d="M13.2082 35.875C29.0574 35.875 37.7262 22.4117 37.7262 10.736C37.7262 10.3536 37.7262 9.97297 37.701 9.59396C39.3874 8.34316 40.8431 6.79462 42 5.02059C40.4273 5.73509 38.7588 6.20358 37.0507 6.41066C38.8491 5.30681 40.1961 3.56927 40.8391 1.52372C39.1479 2.5528 37.2971 3.27817 35.3673 3.66834C33.7379 1.89186 31.4624 0.883301 29.0843 0.883301C24.3526 0.883301 20.4592 4.87548 20.4592 9.72694C20.4592 10.4 20.5341 11.0709 20.6824 11.7265C13.7575 11.3706 7.29659 8.0121 2.92318 2.49527C0.648947 6.50949 1.82569 11.7117 5.591 14.2896C4.21984 14.248 2.87815 13.8687 1.68 13.1838V13.2957C1.68115 17.4856 4.58776 21.1274 8.59318 21.9568C7.32466 22.3115 5.99337 22.3632 4.70236 22.1082C5.82841 25.6987 9.07553 28.1735 12.7529 28.2441C9.70218 30.7025 5.93143 32.0378 2.05128 32.0338C1.36566 32.0324 0.680696 31.99 0 31.9063C3.9403 34.499 8.52633 35.8747 13.2082 35.8682" fill="#1DA1F2"/>
</svg>
