<svg width="36" height="22" viewBox="0 0 36 22" fill="none" xmlns="http://www.w3.org/2000/svg">
<path d="M1.37444 0.625977C2.62132 0.625977 4.52132 0.625977 5.59007 0.625977C6.12444 0.625977 6.54007 0.967382 6.71819 1.42259C7.25257 2.90202 8.44007 6.14537 9.80569 8.36452C11.6463 11.2665 12.8338 12.3476 13.6057 12.2338C14.3776 12.0631 14.1401 10.1285 14.1401 8.59213C14.1401 7.05579 14.3182 4.43834 13.5463 3.24342L12.3588 1.59329C12.0619 1.19499 12.3588 0.682879 12.8338 0.682879H19.6026C20.2557 0.682879 20.7901 1.19499 20.7901 1.8209V10.0716C20.7901 10.0716 21.0869 11.551 22.7494 10.0146C24.4119 8.47832 26.1932 5.63327 27.6776 2.73132L28.2713 1.36569C28.4494 0.967382 28.8651 0.682879 29.3401 0.682879H33.7338C34.5651 0.682879 35.1588 1.47949 34.8619 2.21921L34.3869 3.41412C34.3869 3.41412 32.7838 6.48679 31.1213 8.64903C29.4588 10.8682 29.1026 11.3803 29.3401 11.9493C29.5776 12.5183 33.8526 16.3307 34.9213 18.1515C35.2182 18.6636 35.4557 19.1189 35.6932 19.5173C36.1088 20.2568 35.5151 21.224 34.6244 21.224H29.6369C29.2213 21.224 28.8057 20.9965 28.6276 20.6553L28.1526 19.9155C28.1526 19.9155 25.1244 16.5013 23.2838 15.4202C21.3838 14.396 21.4432 15.8754 21.4432 15.8754V18.8912C21.4432 20.143 20.3744 21.1673 19.0682 21.1673H17.8807C17.8807 21.1673 11.3494 21.1673 6.12444 13.7132C2.02757 7.90931 0.661928 4.15383 0.18693 1.9916C0.06818 1.30879 0.602553 0.625977 1.37444 0.625977Z" fill="#5181B8"/>
</svg>
