<svg width="39" height="29" viewBox="0 0 39 29" fill="none" xmlns="http://www.w3.org/2000/svg">
<path d="M37.5437 4.39794C37.1017 2.68438 35.807 1.33368 34.165 0.872242C31.1652 0.0156086 19.1663 0.015625 19.1663 0.015625C19.1663 0.015625 7.16758 0.0156079 4.16783 0.839591C2.55757 1.30071 1.23125 2.68467 0.789347 4.39794C0 7.52779 0 14.0188 0 14.0188C0 14.0188 0 20.5427 0.789347 23.6398C1.23154 25.353 2.52597 26.704 4.16812 27.1653C7.19917 28.0222 19.1665 28.0222 19.1665 28.0222C19.1665 28.0222 31.1652 28.0222 34.165 27.1982C35.8072 26.737 37.1017 25.386 37.5438 23.6728C38.3332 20.5427 38.3332 14.0518 38.3332 14.0518C38.3332 14.0518 38.3648 7.52779 37.5437 4.39794Z" fill="#FF0000"/>
<path d="M15.345 20.0159L25.3229 14.0192L15.345 8.02246V20.0159Z" fill="white"/>
</svg>
