<svg width="963" height="387" viewBox="0 0 963 387" fill="none" xmlns="http://www.w3.org/2000/svg">
<path opacity="0.1" d="M820.959 0.632141L798.295 44.8843C765.487 108.942 698.167 147.809 626.288 144.192L576.633 141.694L620.885 164.358C684.942 197.165 723.81 264.485 720.193 336.364L717.694 386.02L740.358 341.768C773.166 277.71 840.486 238.843 912.365 242.46L962.02 244.958L917.768 222.294C853.711 189.487 814.844 122.167 818.46 50.2875L820.959 0.632141Z" fill="white"/>
<path d="M0.595703 318.023V276.119L124.033 81.0909H158.976V140.75H137.67L54.573 272.426V274.699H226.874V318.023H0.595703ZM139.374 372V305.239L139.942 286.489V81.0909H189.658V372H139.374Z" fill="white"/>
<path d="M379.786 377.54C356.396 377.54 336.32 371.621 319.559 359.784C302.892 347.852 290.061 330.665 281.064 308.222C272.163 285.684 267.712 258.553 267.712 226.83C267.807 195.106 272.305 168.117 281.207 145.864C290.203 123.515 303.034 106.47 319.701 94.7273C336.462 82.9849 356.491 77.1136 379.786 77.1136C403.081 77.1136 423.11 82.9849 439.871 94.7273C456.633 106.47 469.464 123.515 478.366 145.864C487.362 168.212 491.86 195.201 491.86 226.83C491.86 258.648 487.362 285.826 478.366 308.364C469.464 330.807 456.633 347.947 439.871 359.784C423.205 371.621 403.176 377.54 379.786 377.54ZM379.786 333.08C397.968 333.08 412.314 324.131 422.826 306.233C433.432 288.241 438.735 261.773 438.735 226.83C438.735 203.724 436.32 184.311 431.491 168.591C426.661 152.871 419.843 141.034 411.036 133.08C402.229 125.03 391.813 121.006 379.786 121.006C361.699 121.006 347.4 130.002 336.888 147.994C326.377 165.892 321.074 192.17 320.979 226.83C320.885 250.03 323.205 269.538 327.939 285.352C332.769 301.167 339.587 313.099 348.394 321.148C357.201 329.102 367.665 333.08 379.786 333.08Z" fill="white"/>
<path d="M533.799 318.023V276.119L657.236 81.0909H692.18V140.75H670.873L587.776 272.426V274.699H760.077V318.023H533.799ZM672.577 372V305.239L673.145 286.489V81.0909H722.861V372H672.577Z" fill="white"/>
</svg>
